<svg xmlns="http://www.w3.org/2000/svg" viewBox="0 0 64 64" fill="none" stroke="#1a2744" stroke-width="2" stroke-linecap="round" stroke-linejoin="round">
  <!-- First clothespin (angled) -->
  <path d="M16 8l4 24" />
  <path d="M24 8l-4 24" />
  <path d="M16 8c0-2 2-4 4-4s4 2 4 4" />
  <path d="M18 18h4" />
  <!-- Second clothespin (straight) -->
  <path d="M38 10v22" />
  <path d="M46 10v22" />
  <path d="M38 10c0-2 2-4 4-4s4 2 4 4" />
  <path d="M40 20h4" />
  <!-- Third clothespin (small, background) -->
  <path d="M52 14v16" opacity="0.6" />
  <path d="M58 14v16" opacity="0.6" />
  <path d="M52 14c0-1.5 1.5-3 3-3s3 1.5 3 3" opacity="0.6" />
</svg>
