<svg xmlns="http://www.w3.org/2000/svg" viewBox="0 0 64 64" fill="none" stroke="#1a2744" stroke-width="2" stroke-linecap="round" stroke-linejoin="round">
  <!-- Bottle body -->
  <path d="M18 24v32c0 2 2 4 4 4h20c2 0 4-2 4-4V24" />
  <!-- Bottle neck -->
  <path d="M24 24V16h16v8" />
  <!-- Cap -->
  <path d="M22 16h20v-4c0-1-1-2-2-2H24c-1 0-2 1-2 2v4z" />
  <!-- Handle hole -->
  <ellipse cx="32" cy="20" rx="4" ry="2" />
  <!-- T-shirt label on bottle -->
  <path d="M26 36l4-4h4l4 4" />
  <path d="M28 36v10h8V36" />
  <!-- Bubbles -->
  <circle cx="48" cy="12" r="3" />
  <circle cx="54" cy="18" r="2" />
  <circle cx="52" cy="8" r="1.5" />
</svg>
