<svg xmlns="http://www.w3.org/2000/svg" viewBox="0 0 64 64" fill="none" stroke="#1a2744" stroke-width="2" stroke-linecap="round" stroke-linejoin="round">
  <!-- Machine body -->
  <rect x="8" y="8" width="48" height="52" rx="4" />
  <!-- Control panel -->
  <line x1="8" y1="20" x2="56" y2="20" />
  <!-- Control knobs -->
  <circle cx="18" cy="14" r="3" />
  <circle cx="30" cy="14" r="3" />
  <!-- Display/buttons -->
  <rect x="40" y="11" width="10" height="6" rx="1" />
  <!-- Door circle -->
  <circle cx="32" cy="42" r="16" />
  <!-- Inner drum circle -->
  <circle cx="32" cy="42" r="12" />
  <!-- Door handle -->
  <path d="M44 38c2 0 3 2 3 4s-1 4-3 4" />
  <!-- Water/clothes suggestion inside -->
  <path d="M26 38c2-2 4-2 6 0s4 2 6 0" />
  <path d="M26 46c2-2 4-2 6 0s4 2 6 0" />
</svg>
